<?xml version="1.0" standalone="no"?>
<!DOCTYPE svg PUBLIC "-//W3C//DTD SVG 20010904//EN"
 "http://www.w3.org/TR/2001/REC-SVG-20010904/DTD/svg10.dtd">
<svg version="1.0" xmlns="http://www.w3.org/2000/svg"
 width="1130.000000pt" height="1130.000000pt" viewBox="0 0 1130.000000 1130.000000"
 preserveAspectRatio="xMidYMid meet">
<metadata>
Created by potrace 1.14, written by Peter Selinger 2001-2017
</metadata>
<g transform="translate(0.000000,1130.000000) scale(0.100000,-0.100000)"
fill="#000000" stroke="none">
<path d="M0 5650 l0 -5650 5650 0 5650 0 -1 2743 c-1 1508 -3 2731 -5 2717 -2
-14 -9 -65 -15 -115 -26 -208 -102 -453 -209 -670 -236 -482 -664 -942 -1220
-1312 -654 -436 -1461 -756 -2370 -942 -662 -135 -1266 -189 -1975 -178 -615
10 -1122 65 -1700 183 -728 149 -1443 412 -2035 748 -708 402 -1241 923 -1515
1481 -118 241 -183 441 -221 680 -23 147 -23 470 -1 612 58 367 207 721 440
1047 241 337 600 673 1010 943 942 621 2205 1004 3607 1094 252 16 938 13
1205 -6 1370 -96 2599 -473 3520 -1080 210 -138 320 -221 488 -367 324 -281
566 -581 737 -911 138 -266 219 -523 249 -787 5 -43 9 1114 10 2673 l1 2747
-5650 0 -5650 0 0 -5650z"/>
<path d="M5330 8913 c-941 -28 -1955 -230 -2735 -546 -435 -176 -710 -319
-1060 -553 -259 -172 -382 -271 -589 -474 -271 -266 -444 -496 -581 -775 -163
-330 -235 -650 -222 -990 12 -309 81 -575 222 -855 209 -419 519 -770 992
-1126 561 -422 1355 -775 2197 -979 754 -183 1417 -254 2249 -242 390 6 481
10 807 43 1420 140 2760 653 3595 1375 125 108 338 327 428 439 256 319 430
673 501 1020 47 231 48 558 1 780 -121 579 -471 1099 -1060 1574 -145 117
-439 311 -651 430 -382 216 -886 422 -1359 556 -886 251 -1742 352 -2735 323z
m-1488 -1229 c141 -99 214 -521 152 -873 -34 -188 -120 -273 -263 -259 -62 6
-104 36 -141 101 -35 62 -38 118 -14 257 8 50 13 94 10 99 -16 25 -559 141
-577 122 -3 -3 2 -85 12 -181 9 -96 23 -263 29 -370 17 -278 10 -258 100 -285
41 -12 84 -26 95 -30 18 -7 18 -6 -3 17 -19 21 -24 37 -24 90 -1 147 102 231
247 204 55 -11 116 -73 155 -157 59 -128 90 -398 71 -618 -26 -297 -104 -421
-263 -421 -67 0 -114 24 -152 77 -37 53 -45 138 -22 247 28 134 30 129 -72
159 -49 15 -91 27 -94 27 -3 0 -8 -260 -12 -577 -3 -318 -9 -597 -12 -621 l-6
-42 83 6 c94 7 147 -3 200 -39 95 -64 106 -208 23 -291 -69 -68 -134 -79 -583
-98 -419 -17 -1025 8 -1159 49 -106 32 -164 119 -148 224 16 111 77 150 239
157 l109 5 -6 51 c-26 221 -53 720 -62 1161 -6 286 8 997 22 1176 l7 77 -109
-2 c-95 -1 -114 2 -151 21 -105 57 -139 187 -75 295 36 61 177 96 472 118 197
15 814 15 985 1 146 -13 453 -62 563 -90 l72 -19 0 58 c0 70 12 105 48 144 68
72 176 85 254 30z m2009 -49 c250 -20 316 -39 377 -109 100 -114 49 -285 -98
-331 -50 -15 -63 -15 -145 -2 -49 8 -93 12 -96 8 -3 -3 2 -76 12 -161 53 -468
69 -849 69 -1697 l0 -673 33 6 c173 30 426 91 510 123 31 12 35 39 17 132 -20
100 -28 229 -18 270 7 25 25 52 53 78 123 113 301 60 351 -104 36 -119 72
-588 60 -788 -13 -219 -95 -331 -242 -332 -52 0 -66 4 -98 29 -51 38 -77 100
-83 197 -3 44 -9 79 -12 79 -3 0 -60 -14 -126 -30 -162 -41 -365 -75 -570 -95
-141 -14 -244 -16 -605 -12 -576 7 -739 24 -817 83 -46 35 -63 73 -63 144 0
126 67 183 237 203 l93 11 0 121 c0 154 -16 580 -36 950 -8 160 -18 547 -21
860 -3 314 -8 573 -12 577 -4 4 -38 1 -76 -7 -134 -28 -184 -18 -245 51 -42
49 -60 93 -60 150 0 90 63 172 152 199 110 32 385 71 603 85 184 11 635 4 856
-15z m3169 -13 c252 -47 465 -126 604 -226 76 -55 174 -156 210 -219 16 -26
40 -80 53 -120 23 -63 26 -87 25 -202 -1 -110 -5 -142 -26 -210 -36 -112 -88
-197 -180 -289 -43 -44 -75 -81 -70 -83 37 -12 220 -123 280 -168 329 -253
469 -647 368 -1044 -115 -456 -610 -735 -1404 -791 -210 -15 -1280 -24 -1427
-12 -142 11 -187 31 -233 100 -79 119 -29 280 96 311 24 6 88 11 143 11 98 0
101 1 101 23 0 12 -7 119 -15 237 -42 613 -46 1382 -9 2148 l7 142 -99 0
c-119 0 -163 11 -210 52 -98 87 -100 240 -4 322 17 14 44 29 58 32 15 3 32 7
37 10 6 2 363 2 795 0 751 -3 790 -4 900 -24z m-3698 -3713 c26 -49 22 -96
-13 -159 -69 -123 -82 -172 -87 -337 l-4 -153 -42 -10 c-22 -6 -47 -13 -55
-16 -11 -4 -13 21 -8 148 3 84 13 187 22 228 21 96 89 301 111 335 15 23 19
24 37 12 11 -7 29 -29 39 -48z m2118 14 c39 -61 38 -92 -5 -182 -60 -125 -78
-195 -79 -301 -1 -52 1 -115 4 -140 l5 -45 -55 -12 c-30 -6 -56 -10 -57 -9 -2
2 -6 33 -10 69 l-6 65 -60 -64 c-33 -35 -70 -67 -83 -70 -32 -8 -75 25 -104
79 -31 57 -23 95 39 189 45 69 160 188 182 188 6 0 23 -7 39 -15 l29 -15 12
42 c43 163 86 268 110 268 5 0 23 -21 39 -47z m481 -51 c11 -37 9 -45 -35
-141 -68 -148 -78 -193 -74 -345 l3 -130 -50 -12 c-60 -16 -65 -11 -65 71 l0
60 -58 -62 c-53 -58 -87 -83 -111 -83 -20 0 -75 56 -92 95 -23 52 -15 88 40
173 42 65 152 178 182 187 10 3 30 -2 44 -11 14 -9 27 -15 29 -13 1 2 15 49
30 104 33 118 51 162 74 188 16 18 17 18 44 -12 15 -16 32 -48 39 -69z m-5108
62 c13 -5 13 -13 -5 -64 l-20 -59 -100 6 c-80 5 -102 3 -109 -8 -9 -15 -63
-177 -72 -217 l-5 -22 29 24 c22 19 45 26 102 31 110 10 110 10 82 -54 l-23
-55 -99 3 -100 3 -6 -39 c-4 -21 -7 -77 -7 -125 l0 -86 -71 -22 c-39 -12 -73
-19 -76 -17 -7 8 34 240 68 381 29 118 35 132 67 162 l36 33 -42 -6 c-48 -6
-50 -2 -26 56 15 39 18 41 87 55 40 8 81 17 92 19 31 7 182 8 198 1z m1283
-41 c-47 -96 -96 -231 -125 -353 -24 -96 -37 -130 -58 -153 -23 -25 -25 -29
-8 -23 29 11 218 20 248 12 l25 -6 -21 -65 c-19 -57 -24 -65 -42 -61 -56 14
-139 17 -230 7 -54 -5 -100 -9 -102 -7 -1 1 6 27 16 57 11 30 29 108 40 174
23 126 73 326 96 381 12 29 23 36 92 58 43 14 81 25 86 26 4 0 -3 -21 -17 -47z
m2141 -11 c-4 -32 -9 -67 -12 -78 -4 -12 2 -9 17 11 98 125 132 144 195 105
91 -55 80 -167 -27 -263 l-52 -47 41 0 c93 0 119 -90 60 -208 -54 -108 -151
-165 -284 -165 -92 -1 -150 21 -175 65 -17 31 -16 35 49 216 41 113 61 225 61
332 l0 56 58 16 c31 9 61 17 66 17 5 1 6 -25 3 -57z m1893 -28 c0 -12 4 -34
10 -48 8 -23 6 -27 -14 -32 -43 -11 -98 0 -113 22 -12 18 -11 24 8 49 28 34
79 57 97 43 6 -6 12 -21 12 -34z m-3677 -1 c14 -84 17 -78 -39 -81 -56 -3 -84
13 -84 48 0 25 59 70 91 70 23 0 27 -5 32 -37z m-1003 -77 c0 -2 -7 -23 -15
-46 -23 -65 -21 -70 30 -70 41 0 45 -2 45 -25 0 -28 -5 -31 -71 -40 l-46 -6
-11 -62 c-33 -178 -25 -218 36 -196 38 13 46 9 37 -20 -7 -23 -59 -58 -105
-71 -92 -26 -131 70 -94 230 29 130 29 130 5 130 -37 0 -24 43 17 55 27 8 36
18 50 57 14 40 22 48 52 56 38 11 70 14 70 8z m1260 2 c0 -2 -7 -25 -15 -52
-8 -27 -15 -53 -15 -58 0 -4 21 -8 46 -8 44 0 45 -1 42 -27 -3 -25 -8 -29 -52
-35 -27 -4 -52 -10 -57 -15 -8 -8 -39 -170 -39 -207 0 -12 6 -30 13 -39 10
-15 17 -16 45 -6 18 6 35 9 38 6 13 -12 -9 -47 -41 -67 -80 -49 -131 -45 -158
13 -23 47 -21 114 7 220 12 48 20 90 17 92 -2 3 -13 5 -23 5 -34 0 -18 43 19
54 25 8 36 20 52 57 16 39 26 50 53 58 32 9 68 14 68 9z m300 -7 c0 -5 -4 -20
-9 -33 -4 -13 -11 -35 -15 -50 -6 -28 -6 -28 44 -28 52 0 53 -1 44 -36 -5 -17
-15 -23 -55 -26 -27 -3 -52 -8 -55 -11 -11 -10 -33 -134 -35 -192 -2 -66 7
-80 45 -65 38 14 46 13 46 -9 0 -24 -51 -64 -104 -81 -34 -11 -41 -10 -65 7
-14 11 -32 38 -40 61 -14 37 -13 50 8 149 30 144 29 138 3 141 -16 3 -22 8
-18 19 3 8 6 19 6 24 0 4 15 12 32 17 27 7 36 17 49 52 13 34 24 47 50 56 42
15 69 17 69 5z m-1990 -91 c31 -24 44 -25 76 -4 24 16 26 16 49 -6 33 -31 32
-72 -2 -146 -30 -65 -33 -120 -13 -204 14 -59 10 -65 -48 -76 -44 -9 -54 4
-60 71 -2 30 -7 55 -9 55 -2 0 -27 -25 -55 -55 -28 -31 -64 -63 -79 -71 -26
-13 -32 -13 -59 1 -16 8 -41 35 -56 60 -21 37 -25 52 -19 84 7 44 58 133 106
190 36 40 127 121 137 121 4 0 18 -9 32 -20z m2644 1 c12 -10 16 -32 16 -81 0
-92 -17 -112 -121 -145 -44 -14 -87 -25 -95 -25 -20 0 -17 -29 6 -68 18 -29
25 -33 48 -27 15 3 49 19 75 35 27 17 50 30 53 30 2 0 4 -13 4 -29 0 -21 -10
-37 -32 -57 -45 -37 -135 -76 -181 -78 -33 -1 -44 5 -72 36 -44 48 -52 93 -31
172 51 183 133 261 263 253 28 -2 59 -9 67 -16z m1072 -35 c-3 -29 -17 -95
-32 -147 -39 -144 -38 -138 -20 -145 24 -9 71 39 100 101 14 28 31 88 40 134
23 122 37 134 92 75 41 -43 44 -87 12 -154 -19 -37 -22 -63 -23 -150 l0 -105
-49 -12 c-27 -7 -53 -10 -58 -7 -4 3 -8 32 -8 66 l0 60 -57 -53 c-70 -63 -112
-83 -148 -69 -47 18 -51 48 -22 157 14 54 31 137 38 184 l12 87 51 15 c81 23
80 24 72 -37z m1750 29 c8 -11 14 -45 14 -81 0 -85 -19 -106 -121 -139 -44
-14 -87 -25 -95 -25 -19 0 -18 -21 3 -65 16 -33 20 -36 48 -31 16 4 52 20 78
36 27 17 50 30 53 30 2 0 4 -13 4 -29 0 -21 -10 -37 -32 -57 -45 -37 -135 -76
-181 -78 -33 -1 -44 5 -72 36 -44 48 -52 93 -31 172 51 184 133 261 265 253
38 -3 58 -9 67 -22z m342 0 c29 -13 55 -31 58 -39 5 -12 -30 -86 -39 -86 -1 0
-24 11 -51 25 -50 25 -100 33 -110 16 -3 -5 28 -39 69 -76 68 -61 75 -70 75
-105 0 -21 -6 -53 -14 -71 -18 -43 -73 -96 -108 -104 -32 -8 -127 18 -158 43
l-23 18 21 47 c12 26 24 47 28 47 4 0 28 -10 53 -22 47 -23 113 -30 120 -13 3
5 -26 35 -63 65 -104 85 -114 118 -59 201 31 47 78 79 118 79 17 0 54 -11 83
-25z m-4429 -74 c-16 -50 -36 -145 -45 -213 -8 -68 -16 -124 -17 -125 -1 0
-28 -8 -59 -16 l-58 -15 0 33 c0 52 37 253 60 327 20 67 21 68 68 82 84 26 84
27 51 -73z m3701 84 c0 -2 -11 -38 -24 -78 -25 -76 -56 -248 -56 -310 0 -33
-2 -35 -44 -46 -80 -20 -87 -17 -80 32 27 196 62 349 84 371 16 16 120 43 120
31z"/>
<path d="M8755 7158 c-122 -113 -121 -533 1 -655 81 -83 177 -9 219 169 31
130 11 328 -43 436 -43 88 -114 108 -177 50z"/>
<path d="M8786 5937 c-64 -84 -96 -239 -103 -500 -8 -309 25 -541 94 -669 33
-60 50 -73 86 -64 43 10 82 91 109 225 21 106 23 141 22 401 0 255 -3 296 -23
390 -46 217 -120 303 -185 217z"/>
<path d="M7201 3558 c-43 -57 -91 -152 -91 -181 0 -28 29 -32 55 -7 48 45 75
97 89 168 17 91 4 95 -53 20z"/>
<path d="M7670 3573 c-44 -50 -73 -99 -96 -166 -29 -83 29 -73 89 15 29 41 40
71 48 122 6 37 9 70 6 72 -2 3 -24 -17 -47 -43z"/>
<path d="M6286 3779 c-57 -63 -124 -241 -142 -377 -6 -46 -4 -50 23 -70 39
-28 77 -36 101 -23 31 17 82 127 82 178 0 50 -10 57 -75 57 -22 0 -43 5 -47
10 -13 19 -9 56 7 56 26 0 88 64 111 115 29 61 30 81 5 95 -16 8 -26 2 -65
-41z"/>
<path d="M2985 3574 c-41 -43 -105 -166 -105 -201 0 -53 44 -29 99 54 27 41
61 167 48 180 -3 3 -22 -12 -42 -33z"/>
<path d="M5496 3571 c-38 -85 -34 -96 23 -66 33 17 41 33 41 86 0 31 -4 39
-19 39 -13 0 -26 -18 -45 -59z"/>
<path d="M8316 3571 c-38 -85 -34 -96 23 -66 33 17 41 33 41 86 0 31 -4 39
-19 39 -13 0 -26 -18 -45 -59z"/>
</g>
</svg>
