<?xml version="1.0" standalone="no"?>
<!DOCTYPE svg PUBLIC "-//W3C//DTD SVG 20010904//EN"
 "http://www.w3.org/TR/2001/REC-SVG-20010904/DTD/svg10.dtd">
<svg version="1.0" xmlns="http://www.w3.org/2000/svg"
 width="935.000000pt" height="935.000000pt" viewBox="0 0 935.000000 935.000000"
 preserveAspectRatio="xMidYMid meet">
<metadata>
Created by potrace 1.14, written by Peter Selinger 2001-2017
</metadata>
<g transform="translate(0.000000,935.000000) scale(0.100000,-0.100000)"
fill="#000000" stroke="none">
<path d="M0 4675 l0 -4675 4675 0 4675 0 -1 2263 c-1 1244 -3 2251 -5 2237 -2
-14 -9 -59 -15 -100 -36 -259 -143 -524 -314 -780 -396 -595 -1108 -1086
-2035 -1403 -481 -165 -1035 -281 -1590 -332 -246 -23 -664 -33 -983 -24
-1943 57 -3648 870 -4203 2004 -374 765 -204 1576 471 2250 240 241 472 415
804 605 726 416 1700 687 2696 750 375 24 1012 9 1360 -31 764 -87 1464 -280
2060 -568 225 -109 357 -184 555 -316 271 -181 525 -403 702 -615 252 -300
430 -674 477 -1000 6 -41 13 -86 15 -100 2 -14 4 995 5 2243 l1 2267 -4675 0
-4675 0 0 -4675z"/>
<path d="M4185 7364 c-1050 -66 -2061 -362 -2790 -816 -261 -163 -411 -278
-602 -461 -359 -345 -585 -743 -654 -1150 -28 -161 -23 -449 10 -597 85 -385
279 -720 605 -1046 178 -177 314 -288 526 -428 360 -238 717 -408 1190 -566
719 -240 1497 -352 2345 -337 431 8 705 32 1105 98 946 155 1821 513 2421 990
137 109 351 319 452 444 244 303 393 627 437 955 14 106 15 340 0 440 -61 431
-278 824 -658 1192 -605 587 -1546 1010 -2660 1198 -536 90 -1158 120 -1727
84z m-1020 -997 c94 -53 145 -212 153 -470 10 -356 -62 -498 -241 -474 -32 4
-51 15 -79 45 -55 59 -64 105 -44 226 9 55 13 103 9 107 -20 20 -381 99 -453
99 l-26 0 13 -120 c7 -66 19 -214 27 -329 8 -116 17 -215 21 -221 3 -5 12 -10
19 -10 7 0 38 -8 69 -19 56 -18 71 -15 42 9 -21 18 -19 96 5 147 31 70 115
107 190 84 79 -23 141 -129 172 -291 15 -83 16 -387 0 -465 -16 -81 -66 -179
-104 -207 -44 -31 -131 -36 -178 -10 -43 24 -80 91 -80 146 0 23 7 78 16 124
9 45 15 84 13 87 -3 2 -39 15 -80 28 l-76 24 -6 -491 c-3 -270 -9 -501 -12
-513 -7 -23 -6 -23 84 -23 113 0 160 -20 191 -80 49 -97 -2 -212 -108 -239
-112 -29 -595 -46 -917 -32 -400 18 -476 32 -535 95 -19 21 -25 40 -28 90 -8
119 46 166 194 170 46 1 85 4 87 6 2 3 -2 65 -9 138 -37 390 -51 1157 -31
1688 l8 211 -88 -1 c-98 0 -133 12 -176 64 -43 50 -47 141 -10 198 39 61 183
88 555 104 431 19 825 -8 1103 -77 33 -8 63 -14 68 -15 4 0 7 24 7 54 0 67 28
112 90 144 56 28 94 28 145 -1z m1700 -52 c165 -15 206 -24 256 -58 92 -62 98
-210 10 -275 -51 -37 -89 -43 -173 -30 -43 6 -80 9 -83 6 -4 -3 1 -70 10 -149
39 -355 47 -539 52 -1243 l5 -698 57 7 c58 7 334 75 385 94 32 13 32 10 6 214
-8 63 -9 96 -1 120 21 62 100 117 169 117 44 0 108 -38 136 -80 49 -74 76
-292 76 -610 0 -157 -3 -186 -21 -235 -26 -71 -72 -120 -127 -134 -120 -33
-202 50 -202 201 0 42 -3 49 -17 44 -139 -41 -355 -80 -555 -101 -269 -28
-994 -12 -1116 24 -50 15 -97 48 -110 76 -7 14 -12 53 -12 85 0 52 4 64 30 94
37 41 101 65 184 69 l59 2 -7 265 c-4 146 -11 353 -16 460 -23 478 -30 698
-30 1019 l0 344 -32 -7 c-73 -16 -135 -22 -166 -15 -98 20 -157 174 -99 260
47 70 87 85 327 120 265 39 661 45 1005 14z m2600 -8 c255 -46 440 -127 570
-249 122 -114 165 -215 165 -389 0 -172 -43 -278 -166 -409 l-65 -69 63 -32
c187 -94 337 -238 420 -404 92 -180 109 -430 43 -618 -111 -321 -466 -528
-1011 -592 -178 -21 -922 -37 -1195 -26 -234 10 -255 14 -302 70 -52 63 -59
148 -16 217 30 49 72 64 182 64 53 0 98 3 100 8 2 4 -2 90 -9 192 -32 455 -36
1370 -8 1803 l7 107 -69 0 c-90 1 -150 13 -183 37 -35 26 -71 98 -71 144 0 56
39 119 91 147 l44 23 660 -4 c552 -3 675 -7 750 -20z m-3067 -3067 c29 -44 28
-69 -9 -142 -54 -106 -61 -137 -68 -273 l-6 -129 -39 -9 c-52 -13 -57 -2 -50
108 8 119 37 264 75 372 45 127 55 135 97 73z m1760 1 c29 -51 28 -74 -6 -146
-60 -126 -78 -231 -62 -359 l5 -40 -47 -12 -46 -11 -6 30 c-3 16 -6 42 -6 57
0 26 -3 24 -58 -32 -33 -32 -65 -58 -72 -58 -7 0 -30 18 -52 40 -30 33 -38 48
-38 79 0 48 59 142 133 213 51 49 63 53 107 34 12 -5 19 9 34 66 23 92 61 178
79 178 7 0 23 -17 35 -39z m371 14 c37 -48 37 -80 -3 -164 -55 -117 -70 -189
-63 -302 l6 -96 -44 -10 c-51 -12 -55 -7 -55 65 l0 47 -47 -54 c-25 -29 -56
-56 -67 -61 -32 -12 -71 14 -95 63 -18 37 -19 48 -10 78 27 78 158 229 199
229 9 0 21 -5 28 -12 6 -6 14 -9 18 -6 3 3 19 50 35 104 29 97 51 144 69 144
4 0 18 -11 29 -25z m-4196 -2 c3 -5 -2 -29 -9 -54 l-14 -47 -84 5 -84 6 -16
-30 c-8 -17 -24 -63 -35 -103 -20 -72 -20 -72 -1 -55 18 17 153 39 172 28 4
-2 -2 -24 -14 -48 l-22 -45 -82 0 -83 0 -5 -52 c-4 -29 -7 -75 -9 -102 l-2
-49 -54 -19 c-30 -10 -56 -16 -59 -14 -7 7 26 197 54 313 19 81 32 114 50 130
31 29 30 34 -6 27 -16 -4 -30 -4 -30 0 0 18 34 86 44 87 6 0 38 6 71 14 65 14
211 20 218 8z m1057 -32 c-39 -77 -81 -196 -105 -294 -16 -65 -32 -109 -47
-125 -22 -23 -22 -24 -3 -19 43 12 137 19 179 13 l44 -7 -15 -47 c-9 -26 -18
-50 -22 -53 -3 -4 -31 -3 -61 1 -30 4 -93 4 -140 -1 -46 -4 -86 -7 -87 -5 -2
2 1 15 7 30 5 15 21 86 36 159 20 106 79 336 87 343 3 3 132 43 140 43 4 1 -2
-17 -13 -38z m1776 9 c-3 -16 -8 -45 -11 -62 l-6 -33 23 30 c43 57 86 95 109
95 36 0 87 -46 95 -85 9 -48 -27 -118 -79 -156 l-40 -29 30 0 c17 0 42 -9 57
-21 71 -56 -7 -224 -128 -274 -48 -20 -164 -22 -201 -4 -16 8 -37 26 -48 41
l-20 26 36 89 c48 117 67 201 67 295 0 83 2 85 60 104 57 19 62 17 56 -16z
m-1479 -55 c6 -24 8 -47 5 -50 -12 -11 -90 -4 -102 10 -16 20 -4 52 28 70 46
24 58 19 69 -30z m3037 28 c2 -10 7 -33 11 -50 l7 -33 -51 0 c-41 0 -52 4 -62
22 -10 19 -8 25 20 50 36 32 67 36 75 11z m-3878 -100 c-3 -16 -8 -38 -12 -50
-6 -21 -3 -23 36 -23 34 0 41 -3 36 -16 -3 -9 -6 -19 -6 -24 0 -4 -20 -11 -44
-14 -30 -5 -47 -13 -50 -24 -14 -47 -27 -155 -22 -178 6 -22 10 -24 42 -18 31
6 35 4 32 -11 -4 -23 -44 -52 -86 -64 -27 -8 -36 -6 -58 13 -36 30 -41 96 -16
200 19 77 19 79 1 83 -34 9 -15 53 22 53 11 0 23 14 31 37 9 24 23 40 43 49
47 21 58 18 51 -13z m1039 -20 c-8 -27 -15 -49 -15 -50 0 -2 18 -3 41 -3 36 0
40 -2 37 -22 -2 -18 -12 -25 -49 -31 -52 -10 -52 -10 -69 -137 -10 -76 -2 -92
41 -83 21 4 29 2 29 -9 0 -36 -97 -86 -130 -68 -24 13 -50 61 -50 92 0 23 24
144 36 180 4 14 0 21 -15 25 -12 3 -21 9 -21 13 0 14 30 40 47 40 8 0 22 18
30 40 12 30 24 42 47 49 55 16 56 15 41 -36z m265 43 c0 -2 -7 -23 -15 -46 -8
-23 -15 -44 -15 -46 0 -2 18 -4 41 -4 36 0 40 -2 37 -22 -2 -19 -12 -25 -50
-32 l-47 -9 -11 -66 c-7 -36 -10 -84 -8 -106 3 -40 3 -40 42 -37 39 3 39 3 24
-20 -8 -13 -35 -34 -61 -47 -44 -22 -49 -22 -71 -7 -13 8 -29 31 -36 50 -11
34 -6 77 26 219 5 23 3 27 -15 27 -11 0 -21 4 -21 9 0 15 30 41 47 41 8 0 22
18 30 40 12 30 24 42 47 49 35 10 56 13 56 7z m-1645 -86 c29 -18 34 -18 45
-5 20 24 48 18 65 -15 15 -28 14 -34 -11 -96 -27 -67 -27 -71 -12 -204 3 -21
-2 -26 -34 -34 -21 -5 -40 -7 -43 -4 -3 3 -8 23 -11 44 -9 65 -11 66 -61 13
-63 -67 -78 -75 -109 -54 -32 21 -64 73 -64 106 0 44 52 131 121 201 36 37 70
68 74 68 4 0 22 -9 40 -20z m2179 4 c11 -10 16 -34 16 -70 0 -72 -23 -95 -118
-120 -75 -19 -80 -25 -60 -69 14 -32 36 -32 98 0 59 30 60 30 60 7 0 -40 -114
-112 -181 -114 -38 -1 -76 34 -91 84 -9 32 -8 48 11 105 33 101 64 147 113
172 52 25 129 28 152 5z m896 -3 c0 -10 -13 -72 -30 -137 -33 -129 -29 -155
16 -113 38 35 63 91 80 176 8 41 17 79 20 84 10 17 32 9 58 -22 31 -36 33 -77
9 -122 -13 -24 -18 -55 -18 -122 l0 -89 -40 -12 c-22 -6 -43 -9 -47 -7 -5 2
-8 27 -8 56 l0 51 -37 -35 c-79 -75 -129 -89 -158 -45 -15 22 -14 30 4 100 11
41 25 111 32 155 l12 79 41 10 c61 14 66 14 66 -7z m1439 5 c7 -9 11 -39 9
-77 -3 -58 -5 -65 -35 -85 -17 -11 -59 -27 -92 -34 -34 -7 -61 -18 -61 -24 0
-6 9 -26 20 -44 20 -32 20 -32 56 -17 19 8 48 24 65 35 l29 21 0 -25 c0 -31
-25 -58 -82 -87 -68 -35 -97 -40 -128 -24 -62 32 -77 109 -40 209 30 80 60
118 110 144 51 25 131 30 149 8z m287 -5 c23 -10 45 -24 48 -30 7 -11 -22 -71
-34 -71 -3 0 -23 9 -45 20 -41 21 -80 26 -89 12 -3 -4 25 -34 61 -67 63 -56
65 -60 60 -96 -7 -54 -41 -104 -83 -124 -33 -16 -39 -16 -87 0 -84 27 -90 38
-57 93 19 30 21 32 42 18 35 -21 97 -39 115 -31 13 5 1 20 -57 73 -71 66 -73
68 -66 105 4 23 21 52 45 77 44 46 80 51 147 21z m-3651 -13 c-25 -79 -44
-165 -53 -237 -6 -47 -16 -87 -23 -92 -18 -11 -80 -21 -87 -15 -7 8 24 194 46
276 16 59 20 66 52 77 57 19 74 17 65 -9z m3045 17 c0 -3 -11 -44 -25 -92 -14
-49 -29 -123 -32 -167 -6 -77 -7 -79 -39 -92 -36 -15 -74 -18 -74 -6 0 36 34
221 50 274 18 61 24 68 53 77 36 10 67 13 67 6z"/>
<path d="M7240 5922 c-108 -108 -86 -514 30 -562 45 -19 79 -4 112 50 61 99
74 263 33 408 -34 121 -112 167 -175 104z"/>
<path d="M7277 4922 c-27 -29 -54 -102 -74 -192 -28 -131 -25 -477 6 -619 22
-103 55 -186 85 -210 30 -25 65 -5 91 52 45 99 59 210 58 457 0 191 -4 241
-22 329 -23 109 -36 142 -71 179 -25 27 -51 28 -73 4z"/>
<path d="M5966 2950 c-36 -40 -86 -131 -86 -157 0 -38 44 -18 85 37 23 31 51
128 43 151 -2 6 -21 -8 -42 -31z"/>
<path d="M6342 2953 c-34 -44 -82 -135 -82 -157 0 -52 79 8 104 78 20 56 29
116 17 116 -5 0 -23 -17 -39 -37z"/>
<path d="M5201 3128 c-43 -51 -76 -132 -104 -255 l-22 -95 24 -19 c37 -30 69
-34 92 -13 40 36 73 120 63 161 -5 20 -12 23 -55 23 -47 0 -49 1 -49 28 0 20
8 31 32 43 42 20 98 120 82 145 -17 29 -27 26 -63 -18z"/>
<path d="M2462 2945 c-48 -55 -90 -151 -73 -168 13 -13 64 31 86 73 14 27 38
131 31 137 -2 2 -22 -17 -44 -42z"/>
<path d="M4545 2948 c-21 -45 -22 -54 -9 -56 8 -2 26 4 39 12 20 13 25 25 25
56 0 58 -25 52 -55 -12z"/>
<path d="M6880 2954 c-24 -54 -25 -64 -6 -64 26 0 57 35 63 73 5 33 3 37 -16
37 -16 0 -27 -12 -41 -46z"/>
</g>
</svg>
