<?xml version="1.0" standalone="no"?>
<!DOCTYPE svg PUBLIC "-//W3C//DTD SVG 20010904//EN"
 "http://www.w3.org/TR/2001/REC-SVG-20010904/DTD/svg10.dtd">
<svg version="1.0" xmlns="http://www.w3.org/2000/svg"
 width="2500.000000pt" height="1500.000000pt" viewBox="0 0 2500.000000 1500.000000"
 preserveAspectRatio="xMidYMid meet">

<g transform="translate(0.000000,1500.000000) scale(0.100000,-0.100000)"
fill="#FFFFFF" stroke="none">
<path d="M11785 14920 c-1893 -67 -3645 -370 -5280 -914 -1466 -488 -2747
-1152 -3789 -1965 -470 -366 -998 -882 -1327 -1296 -682 -859 -1068 -1745
-1184 -2715 -35 -292 -30 -772 11 -1088 259 -1994 1826 -3819 4379 -5102 1842
-925 4086 -1504 6455 -1664 530 -36 696 -41 1400 -41 704 0 870 5 1400 41
2728 184 5296 928 7254 2101 1795 1075 2998 2462 3430 3954 137 475 195 915
183 1404 -9 371 -46 651 -132 1000 -288 1168 -1038 2277 -2190 3235 -1325
1103 -3131 1966 -5210 2489 -1226 308 -2414 480 -3825 551 -275 14 -1276 20
-1575 10z m1400 -280 c472 -19 819 -42 1255 -86 3103 -307 5896 -1342 7750
-2873 431 -355 850 -782 1160 -1181 766 -986 1138 -2064 1089 -3159 -47 -1064
-483 -2085 -1295 -3036 -153 -180 -566 -596 -754 -760 -1943 -1697 -4974
-2813 -8365 -3080 -1013 -79 -2137 -79 -3150 0 -2985 235 -5708 1130 -7650
2516 -629 448 -1195 975 -1618 1504 -894 1119 -1276 2349 -1116 3595 120 935
547 1833 1277 2688 158 184 549 577 745 747 912 794 2059 1464 3382 1978 1740
675 3698 1063 5785 1146 291 12 1220 12 1505 1z"/>
<path d="M8200 12039 c-86 -14 -190 -71 -248 -133 -90 -99 -116 -183 -106
-341 l7 -104 -94 24 c-257 65 -630 135 -929 174 -386 51 -772 71 -1405 71
-1111 0 -1886 -81 -2063 -217 -68 -52 -115 -151 -131 -278 -29 -230 113 -424
351 -480 81 -19 207 -19 332 0 55 8 101 13 103 11 2 -2 -3 -153 -11 -337 -32
-707 -40 -1071 -40 -1859 0 -795 8 -1151 39 -1760 23 -446 68 -1055 95 -1300
16 -142 37 -127 -169 -122 -145 4 -194 1 -258 -13 -153 -34 -248 -106 -295
-224 -19 -47 -22 -75 -23 -181 0 -122 1 -127 33 -192 52 -106 149 -178 302
-226 86 -26 175 -39 405 -57 1017 -80 2065 -78 2915 5 113 12 223 25 245 31
105 29 227 124 278 217 91 168 70 375 -51 499 -53 54 -101 84 -182 114 -59 22
-80 24 -235 24 -93 0 -190 -4 -214 -8 l-44 -8 7 133 c4 73 11 201 16 283 22
380 33 1204 22 1745 -5 300 -9 546 -9 546 1 1 98 -28 216 -65 l213 -66 -5 -65
c-3 -36 -20 -128 -38 -205 -43 -182 -47 -343 -10 -444 47 -133 130 -221 248
-263 86 -30 245 -23 326 14 192 90 309 309 362 679 55 388 36 957 -44 1294
-67 279 -180 477 -323 563 -80 47 -189 68 -282 53 -242 -39 -381 -230 -361
-499 l7 -93 48 -56 c27 -32 48 -58 47 -60 -2 -1 -47 16 -101 38 -54 22 -149
52 -210 66 -61 13 -112 26 -113 27 -2 1 -14 187 -28 412 -29 476 -56 813 -91
1114 -13 118 -24 224 -24 236 l0 21 143 -19 c328 -43 638 -107 942 -194 104
-31 191 -56 192 -58 5 -5 -24 -198 -47 -316 -30 -159 -35 -244 -16 -323 34
-143 134 -280 244 -334 46 -22 73 -28 150 -31 113 -5 185 9 264 50 108 57 194
175 246 338 88 274 111 830 52 1250 -91 651 -312 956 -650 899z"/>
<path d="M11145 11899 c-457 -23 -920 -79 -1308 -158 -165 -34 -248 -68 -319
-130 -199 -175 -197 -505 3 -696 129 -123 240 -141 499 -81 85 20 164 38 175
41 20 4 20 0 16 -678 -4 -837 7 -1244 69 -2607 47 -1042 66 -1563 72 -1985 l3
-220 -70 3 c-147 8 -338 -29 -449 -85 -74 -38 -149 -114 -182 -186 -27 -57
-29 -71 -28 -177 0 -95 4 -125 23 -172 56 -144 213 -234 466 -268 87 -11 520
-42 885 -62 308 -17 1305 -17 1540 0 656 47 1205 134 1705 272 80 22 148 40
149 40 1 0 2 -60 3 -132 1 -274 75 -439 231 -515 73 -36 209 -44 298 -18 203
58 347 274 384 575 29 241 -5 1108 -60 1540 -37 286 -84 419 -187 530 -211
229 -600 167 -740 -118 -27 -54 -28 -64 -27 -187 1 -103 9 -182 42 -380 23
-138 42 -268 42 -290 l0 -40 -168 -52 c-248 -78 -482 -138 -702 -183 -208 -41
-376 -67 -385 -59 -3 3 -1 287 5 630 32 2011 -18 3422 -165 4662 -14 114 -25
210 -25 212 0 11 70 3 184 -19 175 -35 206 -38 282 -26 155 24 294 124 356
255 24 51 31 84 36 150 12 197 -63 347 -218 438 -63 37 -208 83 -320 101 -111
18 -681 61 -1020 76 -267 11 -856 11 -1095 -1z"/>
<path d="M16037 11879 c-100 -24 -220 -116 -270 -207 -152 -279 15 -639 316
-683 34 -5 154 -9 266 -9 l204 0 -7 -132 c-50 -989 -57 -1249 -63 -2178 -7
-1203 19 -2050 92 -2980 8 -102 15 -199 15 -217 l0 -32 -197 0 c-318 1 -425
-28 -526 -140 -93 -103 -129 -315 -79 -456 66 -182 206 -296 387 -315 452 -48
1442 -51 2765 -10 684 22 982 51 1423 140 854 174 1499 519 1859 995 272 362
395 838 347 1355 -73 800 -560 1448 -1382 1839 l-117 56 104 92 c278 247 444
527 513 868 14 71 18 138 18 310 0 206 -2 227 -28 328 -65 259 -188 469 -383
657 -390 374 -994 610 -1804 707 -131 15 -303 17 -1780 19 -949 1 -1651 -1
-1673 -7z m3367 -990 c178 -49 308 -439 293 -874 -6 -183 -42 -340 -111 -480
-75 -154 -147 -215 -255 -215 -162 0 -266 168 -327 525 -22 126 -25 427 -6
535 69 392 207 564 406 509z m38 -2676 c128 -116 206 -362 255 -803 23 -210
26 -958 5 -1135 -50 -419 -123 -670 -221 -758 -36 -33 -47 -37 -94 -37 -47 0
-57 4 -84 33 -135 142 -230 488 -273 992 -18 211 -23 590 -11 745 37 466 135
834 253 947 65 63 112 67 170 16z"/>
<path d="M11577 3872 c-30 -33 -84 -165 -147 -357 -123 -380 -169 -633 -177
-976 -3 -124 -2 -233 3 -240 8 -13 28 -10 131 19 l123 35 -8 41 c-4 22 -7 133
-6 246 0 312 37 474 157 700 115 217 112 210 112 275 -1 71 -41 167 -96 227
-42 45 -70 55 -92 30z"/>
<path d="M16203 3868 c-49 -54 -109 -219 -188 -516 l-38 -142 -46 27 c-109 64
-92 62 -157 13 -238 -179 -490 -542 -471 -679 13 -101 132 -258 211 -280 33
-8 47 -7 80 8 58 25 137 100 227 214 l78 97 0 -114 c0 -63 3 -126 6 -140 3
-14 7 -37 10 -50 l5 -23 122 29 c67 16 123 30 125 31 1 2 -5 44 -14 93 -24
128 -24 410 0 522 31 142 75 261 162 436 47 93 85 181 85 196 0 76 -65 217
-126 274 -35 32 -45 32 -71 4z m-253 -755 c0 -10 -5 -36 -10 -58 -5 -22 -14
-82 -20 -134 -13 -103 -31 -142 -123 -258 -50 -64 -123 -133 -141 -133 -15 0
-56 42 -56 57 0 26 43 139 85 223 51 102 119 197 193 268 58 56 72 62 72 35z"/>
<path d="M17193 3868 c-49 -54 -109 -219 -188 -516 l-38 -142 -46 27 c-109 64
-92 62 -157 13 -238 -179 -490 -542 -471 -679 13 -101 132 -258 211 -280 33
-8 47 -7 80 8 58 25 137 100 227 214 l78 97 0 -114 c0 -63 3 -126 6 -140 3
-14 7 -37 10 -50 l5 -23 122 29 c67 16 123 30 125 31 1 2 -5 44 -14 93 -24
128 -24 410 0 522 31 142 75 261 162 436 47 93 85 181 85 196 0 76 -65 217
-126 274 -35 32 -45 32 -71 4z m-253 -755 c0 -10 -5 -36 -10 -58 -5 -22 -14
-82 -20 -134 -13 -103 -31 -142 -123 -258 -50 -64 -123 -133 -141 -133 -15 0
-56 42 -56 57 0 26 43 139 85 223 51 102 119 197 193 268 58 56 72 62 72 35z"/>
<path d="M5945 3824 c-152 -18 -227 -30 -330 -56 -66 -16 -125 -35 -131 -41
-15 -15 -86 -209 -79 -215 2 -3 42 3 87 12 125 24 128 22 40 -43 l-79 -59 -41
-148 c-83 -299 -144 -606 -188 -953 -5 -39 -4 -43 13 -39 10 3 81 24 158 48
l140 43 1 161 c1 145 24 359 40 375 13 13 290 12 355 -1 l67 -14 56 127 c31
70 56 131 56 135 0 17 -421 -29 -433 -47 -1 -2 -22 -26 -46 -52 l-43 -49 7 34
c27 135 139 480 167 516 19 22 273 15 418 -13 l35 -6 44 131 c23 72 41 134 38
136 -17 18 -251 29 -352 18z"/>
<path d="M9005 3799 c-49 -16 -130 -41 -180 -55 -49 -15 -91 -28 -93 -29 -2
-2 -24 -63 -48 -136 -79 -234 -156 -568 -204 -879 -14 -98 -33 -171 -66 -263
-26 -70 -44 -130 -42 -132 2 -3 67 5 144 17 199 30 417 30 537 0 106 -26 97
-26 97 -4 0 9 20 74 44 145 l44 127 -24 6 c-49 12 -214 19 -319 12 -96 -6
-170 -17 -280 -43 -27 -7 -24 -1 39 63 l68 70 38 169 c71 318 166 594 286 832
35 69 64 127 64 128 0 5 -14 1 -105 -28z"/>
<path d="M13574 3788 l-141 -40 -6 -206 c-7 -234 -22 -337 -73 -502 -41 -132
-121 -344 -166 -443 -28 -61 -30 -71 -20 -106 27 -90 104 -153 228 -186 88
-24 269 -22 367 4 283 74 500 327 501 586 1 97 -19 145 -77 183 -37 25 -49 27
-142 27 l-102 0 66 39 c203 121 323 372 250 522 -37 77 -160 164 -232 164 -78
0 -153 -67 -273 -245 -43 -63 -79 -114 -80 -112 -2 1 7 54 20 117 28 137 40
240 29 239 -4 0 -71 -19 -149 -41z m419 -256 c17 -19 17 -22 -3 -83 -33 -97
-89 -196 -140 -249 -49 -50 -115 -90 -149 -90 -30 0 -34 -16 -21 -83 l11 -62
80 4 c44 2 99 0 123 -3 43 -7 44 -8 61 -63 17 -54 17 -60 1 -127 -32 -135
-141 -319 -203 -345 -36 -15 -67 -4 -186 66 -71 41 -78 48 -73 72 74 383 109
518 174 669 58 134 98 197 179 280 l72 74 28 -20 c15 -11 36 -29 46 -40z"/>
<path d="M9704 3706 c-67 -31 -120 -79 -134 -122 -10 -28 -9 -40 7 -72 21 -44
60 -61 145 -61 55 -1 158 16 158 25 0 3 -10 24 -21 47 -14 26 -24 68 -27 112
-2 39 -9 76 -14 83 -16 19 -58 14 -114 -12z"/>
<path d="M17694 3706 c-67 -31 -120 -79 -134 -122 -10 -28 -9 -40 7 -72 21
-44 60 -61 145 -61 55 -1 158 16 158 25 0 3 -10 24 -21 47 -14 26 -24 68 -27
112 -2 39 -9 76 -14 83 -16 19 -58 14 -114 -12z"/>
<path d="M7529 3458 l-105 -29 -38 -105 c-41 -113 -39 -111 -125 -116 -45 -3
-45 -3 -58 -53 -19 -76 -20 -75 43 -75 48 0 55 -2 50 -17 -125 -433 -134 -580
-46 -701 39 -54 75 -77 119 -75 92 3 261 96 287 158 13 33 19 85 9 85 -2 0
-39 -12 -81 -26 l-76 -25 -24 22 c-21 20 -24 31 -24 101 0 84 17 199 53 368
l23 105 115 3 115 3 16 65 c8 35 12 66 9 68 -4 3 -53 1 -109 -2 -57 -4 -105
-6 -106 -4 -2 2 12 53 30 115 42 137 49 167 38 166 -5 0 -57 -14 -115 -31z"/>
<path d="M10269 3458 l-105 -29 -38 -105 c-41 -113 -39 -111 -125 -116 -45 -3
-45 -3 -58 -53 -19 -76 -20 -75 43 -75 48 0 55 -2 50 -17 -125 -433 -134 -580
-46 -701 39 -54 75 -77 119 -75 92 3 261 96 287 158 13 33 19 85 9 85 -2 0
-39 -12 -81 -26 l-76 -25 -24 22 c-21 20 -24 31 -24 101 0 84 17 199 53 368
l23 105 115 3 115 3 16 65 c8 35 12 66 9 68 -4 3 -53 1 -109 -2 -57 -4 -105
-6 -106 -4 -2 2 12 53 30 115 42 137 49 167 38 166 -5 0 -57 -14 -115 -31z"/>
<path d="M10929 3458 l-105 -29 -38 -105 c-41 -113 -39 -111 -125 -116 -45 -3
-45 -3 -58 -53 -19 -76 -20 -75 43 -75 48 0 55 -2 50 -17 -125 -433 -134 -580
-46 -701 39 -54 75 -77 119 -75 92 3 261 96 287 158 13 33 19 85 9 85 -2 0
-39 -12 -81 -26 l-76 -25 -24 22 c-21 20 -24 31 -24 101 0 84 17 199 53 368
l23 105 115 3 115 3 16 65 c8 35 12 66 9 68 -4 3 -53 1 -109 -2 -57 -4 -105
-6 -106 -4 -2 2 12 53 30 115 42 137 49 167 38 166 -5 0 -57 -14 -115 -31z"/>
<path d="M6568 3252 c-247 -198 -458 -506 -458 -671 0 -80 106 -243 183 -280
35 -17 49 -19 79 -10 64 17 181 123 277 252 24 31 47 57 52 57 5 0 9 -24 9
-53 0 -102 39 -257 64 -257 13 0 209 60 214 65 2 2 -5 28 -16 57 -28 75 -55
247 -50 321 3 50 15 86 60 182 90 191 92 233 17 319 -53 60 -83 61 -143 6 -24
-22 -47 -40 -51 -40 -4 0 -37 22 -74 48 -36 27 -71 52 -78 56 -6 3 -44 -20
-85 -52z m171 -204 c-10 -40 -25 -113 -34 -163 -13 -77 -22 -100 -60 -155 -51
-75 -148 -185 -176 -201 -16 -8 -24 -5 -43 18 -23 26 -23 29 -9 78 25 86 71
193 115 268 43 75 200 243 217 233 5 -4 1 -35 -10 -78z"/>
<path d="M12218 3300 c-121 -21 -239 -85 -298 -160 -39 -49 -107 -195 -155
-331 -51 -145 -59 -253 -22 -332 28 -62 91 -136 143 -168 65 -40 152 -24 309
54 120 59 212 122 229 156 9 17 16 55 16 90 l0 61 -66 -46 c-80 -54 -149 -90
-223 -115 -51 -18 -55 -18 -73 -2 -22 20 -74 126 -83 169 l-6 31 133 32 c193
47 277 82 326 135 49 53 57 86 56 221 0 119 -16 165 -66 191 -38 20 -149 27
-220 14z m30 -233 c-5 -102 -21 -144 -66 -175 -30 -22 -140 -57 -149 -48 -7 7
33 113 85 228 31 69 37 77 66 81 75 9 69 17 64 -86z"/>
<path d="M14710 3284 c-47 -14 -108 -31 -135 -39 l-51 -14 -12 -123 c-15 -149
-49 -323 -97 -487 -49 -171 -51 -190 -26 -238 51 -101 124 -120 231 -61 69 38
157 111 235 195 l60 65 1 -141 c0 -91 4 -145 11 -152 9 -9 43 -3 133 22 l122
34 -6 35 c-2 19 -10 94 -16 165 -14 161 -1 236 65 373 66 136 61 192 -22 297
-47 59 -99 91 -135 82 -36 -9 -55 -62 -78 -221 -38 -249 -104 -389 -236 -503
l-55 -46 -30 29 -30 30 21 50 c67 154 178 677 144 673 -5 -1 -47 -12 -94 -25z"/>
<path d="M18348 3300 c-121 -21 -239 -85 -298 -160 -39 -49 -107 -195 -155
-331 -51 -145 -59 -253 -22 -332 28 -62 91 -136 143 -168 65 -40 152 -24 309
54 120 59 212 122 229 156 9 17 16 55 16 90 l0 61 -66 -46 c-80 -54 -149 -90
-223 -115 -51 -18 -55 -18 -73 -2 -22 20 -74 126 -83 169 l-6 31 133 32 c193
47 277 82 326 135 49 53 57 86 56 221 0 119 -16 165 -66 191 -38 20 -149 27
-220 14z m30 -233 c-5 -102 -21 -144 -66 -175 -30 -22 -140 -57 -149 -48 -7 7
33 113 85 228 31 69 37 77 66 81 75 9 69 17 64 -86z"/>
<path d="M19065 3286 c-94 -43 -215 -205 -232 -309 -14 -88 48 -168 240 -310
94 -70 117 -92 117 -112 0 -32 -32 -49 -84 -43 -51 6 -185 59 -250 99 -26 17
-53 28 -60 26 -6 -3 -33 -53 -60 -111 -57 -125 -64 -110 79 -181 131 -66 246
-77 330 -33 130 69 248 311 205 422 -14 39 -76 102 -180 184 -98 78 -150 128
-150 143 0 19 63 41 102 36 40 -5 129 -45 213 -96 l50 -30 59 95 c68 111 73
96 -64 168 -152 79 -230 92 -315 52z"/>
<path d="M9655 3261 c-55 -15 -112 -31 -127 -35 -25 -6 -31 -17 -58 -104 -63
-206 -113 -461 -140 -721 -6 -57 -9 -106 -6 -109 3 -3 64 10 135 29 l130 33 6
66 c18 209 29 298 51 406 25 129 79 317 113 397 34 79 39 77 -104 38z"/>
<path d="M17645 3261 c-55 -15 -112 -31 -127 -35 -25 -6 -31 -17 -58 -104 -63
-206 -113 -461 -140 -721 -6 -57 -9 -106 -6 -109 3 -3 64 10 135 29 l130 33 6
66 c18 209 29 298 51 406 25 129 79 317 113 397 34 79 39 77 -104 38z"/>
</g>
</svg>
